<?xml version="1.0" encoding="utf-8"?>
<!-- Generator: Adobe Illustrator 22.1.0, SVG Export Plug-In . SVG Version: 6.00 Build 0)  -->
<svg version="1.1" id="Layer_1" xmlns="http://www.w3.org/2000/svg" xmlns:xlink="http://www.w3.org/1999/xlink" x="0px" y="0px"
	 viewBox="0 0 1200 1200" style="enable-background:new 0 0 1200 1200;" xml:space="preserve">
<style type="text/css">
	.st0{opacity:0.1;fill:#333333;stroke:#231F20;stroke-miterlimit:10;}
	.st1{fill:#E6EDED;stroke:#231F20;stroke-miterlimit:10;}
	.st2{fill:#FFFFFF;stroke:#231F20;stroke-miterlimit:10;}
	.st3{fill:#3F3F3F;stroke:#231F20;stroke-miterlimit:10;}
	.st4{fill:#00FFF8;}
	.st5{opacity:0.66;fill:#1536FF;}
	.st6{opacity:0.33;fill:#1FE2FF;}
	.st7{opacity:0.33;fill:#E9F0FF;}
	.st8{fill:#FFFFFF;}
</style>
<g>
	<path class="st0" d="M918.4,1006.4c0,32.7-136.1,59.2-304,59.2c-167.9,0-304-26.5-304-59.2s136.1-59.2,304-59.2
		C782.3,947.1,918.4,973.7,918.4,1006.4z"/>
	<path class="st1" d="M403.6,564.8c18.9,19.8,48.5,66.3,28.7,85.1c-19.8,18.9-49.2-3.2-68.1-23.1c-12.8-13.5-62.7-63.3-77.6-94.6
		c-3.9-8.2-9.4-26.5,0.9-36.3c10.3-9.8,28.3-3.5,36.3,0.9C354,513.6,390.9,551.4,403.6,564.8z"/>
	<g>
		<path class="st2" d="M594.8,988.6c0,35.6-169.2,35.6-169.2,0c0-35.6,37.9-64.5,84.6-64.5C557,924.1,594.8,953,594.8,988.6z"/>
		<path class="st2" d="M805.8,988.6c0,35.6-169.2,35.6-169.2,0c0-35.6,37.9-64.5,84.6-64.5C768,924.1,805.8,953,805.8,988.6z"/>
		<g>
			<path class="st1" d="M531.3,886.6l-45.7,40.3c9.9,5.6,22.4,11.2,34.4,15c20.5,6.5,40.5,8.9,57.8,7.8l8.7-50.6L531.3,886.6z"/>
		</g>
		<g>
			<path class="st1" d="M701.1,886.6l45.4,40.5c-9.9,5.6-22.1,11-34.1,14.8c-20.5,6.5-41.6,9.2-59,8.1l-7.5-50.8L701.1,886.6z"/>
		</g>
		<path class="st2" d="M664.6,105.6c-37.1,50-60.7,130.8-64.1,166.7c0,0,17.6,0.6,19.3,0c20.8-93.7,77.4-137.4,80.9-147.8
			c3.5-10.5-1-22.2-10.1-26.2C681.7,94.2,671.2,96.8,664.6,105.6z"/>
		<path class="st2" d="M827,434.9C827,317.2,732.6,222,614.9,222h-1C496.2,222,399,317.2,399,434.9c0,73.5,0,294.1,0,294.1
			C399,846.6,496.2,942,613.9,942h1C732.6,942,827,846.6,827,728.9C827,728.9,827,508.4,827,434.9z"/>
		<path class="st3" d="M760.2,396.2c0,45.2-72.2,81.8-161.3,81.8c-89.1,0-161.3-36.6-161.3-81.8c0-45.2,72.2-81.8,161.3-81.8
			C688,314.4,760.2,351,760.2,396.2z"/>
	</g>
	<path class="st1" d="M810.7,651.5c-13.9-23.6-32.2-75.6-8.6-89.5c23.6-13.9,47.2,14.4,61.1,38c9.4,16,46.6,76,54,109.8
		c1.9,8.9,3.1,27.9-9.1,35.1c-12.2,7.2-28.4-3-35.1-9.1C847.3,712.7,820,667.4,810.7,651.5z"/>
</g>
<g>
	<g>
		<path class="st4" d="M500,366.2c0-2.3-1.9-4.2-4.2-4.2h-3.7c-2.3,0-4.2,1.9-4.2,4.2v3.7c0,2.3,1.9,4.2,4.2,4.2h3.7
			c2.3,0,4.2-1.9,4.2-4.2V366.2z"/>
		<path class="st4" d="M500,380.2c0-2.3-1.9-4.2-4.2-4.2h-3.7c-2.3,0-4.2,1.9-4.2,4.2v3.7c0,2.3,1.9,4.2,4.2,4.2h3.7
			c2.3,0,4.2-1.9,4.2-4.2V380.2z"/>
		<path class="st4" d="M500,394.2c0-2.3-1.9-4.2-4.2-4.2h-3.7c-2.3,0-4.2,1.9-4.2,4.2v3.7c0,2.3,1.9,4.2,4.2,4.2h3.7
			c2.3,0,4.2-1.9,4.2-4.2V394.2z"/>
		<path class="st4" d="M500,408.2c0-2.3-1.9-4.2-4.2-4.2h-3.7c-2.3,0-4.2,1.9-4.2,4.2v3.7c0,2.3,1.9,4.2,4.2,4.2h3.7
			c2.3,0,4.2-1.9,4.2-4.2V408.2z"/>
		<path class="st4" d="M500,422.2c0-2.3-1.9-4.2-4.2-4.2h-3.7c-2.3,0-4.2,1.9-4.2,4.2v3.7c0,2.3,1.9,4.2,4.2,4.2h3.7
			c2.3,0,4.2-1.9,4.2-4.2V422.2z"/>
	</g>
	<g>
		<path class="st4" d="M514,394.2c0-2.3-1.9-4.2-4.2-4.2h-3.7c-2.3,0-4.2,1.9-4.2,4.2v3.7c0,2.3,1.9,4.2,4.2,4.2h3.7
			c2.3,0,4.2-1.9,4.2-4.2V394.2z"/>
	</g>
	<g>
		<path class="st4" d="M528,366.2c0-2.3-1.9-4.2-4.2-4.2h-3.7c-2.3,0-4.2,1.9-4.2,4.2v3.7c0,2.3,1.9,4.2,4.2,4.2h3.7
			c2.3,0,4.2-1.9,4.2-4.2V366.2z"/>
		<path class="st4" d="M528,380.2c0-2.3-1.9-4.2-4.2-4.2h-3.7c-2.3,0-4.2,1.9-4.2,4.2v3.7c0,2.3,1.9,4.2,4.2,4.2h3.7
			c2.3,0,4.2-1.9,4.2-4.2V380.2z"/>
		<path class="st4" d="M528,394.2c0-2.3-1.9-4.2-4.2-4.2h-3.7c-2.3,0-4.2,1.9-4.2,4.2v3.7c0,2.3,1.9,4.2,4.2,4.2h3.7
			c2.3,0,4.2-1.9,4.2-4.2V394.2z"/>
		<path class="st4" d="M528,408.2c0-2.3-1.9-4.2-4.2-4.2h-3.7c-2.3,0-4.2,1.9-4.2,4.2v3.7c0,2.3,1.9,4.2,4.2,4.2h3.7
			c2.3,0,4.2-1.9,4.2-4.2V408.2z"/>
		<path class="st4" d="M528,422.2c0-2.3-1.9-4.2-4.2-4.2h-3.7c-2.3,0-4.2,1.9-4.2,4.2v3.7c0,2.3,1.9,4.2,4.2,4.2h3.7
			c2.3,0,4.2-1.9,4.2-4.2V422.2z"/>
	</g>
	<g>
		<path class="st4" d="M546,366.2c0-2.3-1.9-4.2-4.2-4.2h-3.7c-2.3,0-4.2,1.9-4.2,4.2v3.7c0,2.3,1.9,4.2,4.2,4.2h3.7
			c2.3,0,4.2-1.9,4.2-4.2V366.2z"/>
		<path class="st4" d="M546,380.2c0-2.3-1.9-4.2-4.2-4.2h-3.7c-2.3,0-4.2,1.9-4.2,4.2v3.7c0,2.3,1.9,4.2,4.2,4.2h3.7
			c2.3,0,4.2-1.9,4.2-4.2V380.2z"/>
		<path class="st4" d="M546,394.2c0-2.3-1.9-4.2-4.2-4.2h-3.7c-2.3,0-4.2,1.9-4.2,4.2v3.7c0,2.3,1.9,4.2,4.2,4.2h3.7
			c2.3,0,4.2-1.9,4.2-4.2V394.2z"/>
		<path class="st4" d="M546,408.2c0-2.3-1.9-4.2-4.2-4.2h-3.7c-2.3,0-4.2,1.9-4.2,4.2v3.7c0,2.3,1.9,4.2,4.2,4.2h3.7
			c2.3,0,4.2-1.9,4.2-4.2V408.2z"/>
		<path class="st4" d="M546,422.2c0-2.3-1.9-4.2-4.2-4.2h-3.7c-2.3,0-4.2,1.9-4.2,4.2v3.7c0,2.3,1.9,4.2,4.2,4.2h3.7
			c2.3,0,4.2-1.9,4.2-4.2V422.2z"/>
	</g>
	<g>
		<path class="st4" d="M560,366.2c0-2.3-1.9-4.2-4.2-4.2h-3.7c-2.3,0-4.2,1.9-4.2,4.2v3.7c0,2.3,1.9,4.2,4.2,4.2h3.7
			c2.3,0,4.2-1.9,4.2-4.2V366.2z"/>
		<path class="st4" d="M560,394.2c0-2.3-1.9-4.2-4.2-4.2h-3.7c-2.3,0-4.2,1.9-4.2,4.2v3.7c0,2.3,1.9,4.2,4.2,4.2h3.7
			c2.3,0,4.2-1.9,4.2-4.2V394.2z"/>
		<path class="st4" d="M560,422.2c0-2.3-1.9-4.2-4.2-4.2h-3.7c-2.3,0-4.2,1.9-4.2,4.2v3.7c0,2.3,1.9,4.2,4.2,4.2h3.7
			c2.3,0,4.2-1.9,4.2-4.2V422.2z"/>
	</g>
	<g>
		<path class="st4" d="M574,366.2c0-2.3-1.9-4.2-4.2-4.2h-3.7c-2.3,0-4.2,1.9-4.2,4.2v3.7c0,2.3,1.9,4.2,4.2,4.2h3.7
			c2.3,0,4.2-1.9,4.2-4.2V366.2z"/>
		<path class="st4" d="M574,394.2c0-2.3-1.9-4.2-4.2-4.2h-3.7c-2.3,0-4.2,1.9-4.2,4.2v3.7c0,2.3,1.9,4.2,4.2,4.2h3.7
			c2.3,0,4.2-1.9,4.2-4.2V394.2z"/>
		<path class="st4" d="M574,422.2c0-2.3-1.9-4.2-4.2-4.2h-3.7c-2.3,0-4.2,1.9-4.2,4.2v3.7c0,2.3,1.9,4.2,4.2,4.2h3.7
			c2.3,0,4.2-1.9,4.2-4.2V422.2z"/>
	</g>
	<g>
		<path class="st4" d="M592,366.2c0-2.3-1.9-4.2-4.2-4.2h-3.7c-2.3,0-4.2,1.9-4.2,4.2v3.7c0,2.3,1.9,4.2,4.2,4.2h3.7
			c2.3,0,4.2-1.9,4.2-4.2V366.2z"/>
		<path class="st4" d="M592,380.2c0-2.3-1.9-4.2-4.2-4.2h-3.7c-2.3,0-4.2,1.9-4.2,4.2v3.7c0,2.3,1.9,4.2,4.2,4.2h3.7
			c2.3,0,4.2-1.9,4.2-4.2V380.2z"/>
		<path class="st4" d="M592,394.2c0-2.3-1.9-4.2-4.2-4.2h-3.7c-2.3,0-4.2,1.9-4.2,4.2v3.7c0,2.3,1.9,4.2,4.2,4.2h3.7
			c2.3,0,4.2-1.9,4.2-4.2V394.2z"/>
		<path class="st4" d="M592,408.2c0-2.3-1.9-4.2-4.2-4.2h-3.7c-2.3,0-4.2,1.9-4.2,4.2v3.7c0,2.3,1.9,4.2,4.2,4.2h3.7
			c2.3,0,4.2-1.9,4.2-4.2V408.2z"/>
		<path class="st4" d="M592,422.2c0-2.3-1.9-4.2-4.2-4.2h-3.7c-2.3,0-4.2,1.9-4.2,4.2v3.7c0,2.3,1.9,4.2,4.2,4.2h3.7
			c2.3,0,4.2-1.9,4.2-4.2V422.2z"/>
	</g>
	<g>
		<path class="st4" d="M606,422.2c0-2.3-1.9-4.2-4.2-4.2h-3.7c-2.3,0-4.2,1.9-4.2,4.2v3.7c0,2.3,1.9,4.2,4.2,4.2h3.7
			c2.3,0,4.2-1.9,4.2-4.2V422.2z"/>
	</g>
	<g>
		<path class="st4" d="M620,422.2c0-2.3-1.9-4.2-4.2-4.2h-3.7c-2.3,0-4.2,1.9-4.2,4.2v3.7c0,2.3,1.9,4.2,4.2,4.2h3.7
			c2.3,0,4.2-1.9,4.2-4.2V422.2z"/>
	</g>
	<g>
		<path class="st4" d="M638,366.2c0-2.3-1.9-4.2-4.2-4.2h-3.7c-2.3,0-4.2,1.9-4.2,4.2v3.7c0,2.3,1.9,4.2,4.2,4.2h3.7
			c2.3,0,4.2-1.9,4.2-4.2V366.2z"/>
		<path class="st4" d="M638,380.2c0-2.3-1.9-4.2-4.2-4.2h-3.7c-2.3,0-4.2,1.9-4.2,4.2v3.7c0,2.3,1.9,4.2,4.2,4.2h3.7
			c2.3,0,4.2-1.9,4.2-4.2V380.2z"/>
		<path class="st4" d="M638,394.2c0-2.3-1.9-4.2-4.2-4.2h-3.7c-2.3,0-4.2,1.9-4.2,4.2v3.7c0,2.3,1.9,4.2,4.2,4.2h3.7
			c2.3,0,4.2-1.9,4.2-4.2V394.2z"/>
		<path class="st4" d="M638,408.2c0-2.3-1.9-4.2-4.2-4.2h-3.7c-2.3,0-4.2,1.9-4.2,4.2v3.7c0,2.3,1.9,4.2,4.2,4.2h3.7
			c2.3,0,4.2-1.9,4.2-4.2V408.2z"/>
		<path class="st4" d="M638,422.2c0-2.3-1.9-4.2-4.2-4.2h-3.7c-2.3,0-4.2,1.9-4.2,4.2v3.7c0,2.3,1.9,4.2,4.2,4.2h3.7
			c2.3,0,4.2-1.9,4.2-4.2V422.2z"/>
		<g>
			<path class="st4" d="M652,422.2c0-2.3-1.9-4.2-4.2-4.2h-3.7c-2.3,0-4.2,1.9-4.2,4.2v3.7c0,2.3,1.9,4.2,4.2,4.2h3.7
				c2.3,0,4.2-1.9,4.2-4.2V422.2z"/>
		</g>
	</g>
	<g>
		<path class="st4" d="M666,422.2c0-2.3-1.9-4.2-4.2-4.2h-3.7c-2.3,0-4.2,1.9-4.2,4.2v3.7c0,2.3,1.9,4.2,4.2,4.2h3.7
			c2.3,0,4.2-1.9,4.2-4.2V422.2z"/>
	</g>
	<g>
		<path class="st4" d="M684,366.2c0-2.3-1.9-4.2-4.2-4.2h-3.7c-2.3,0-4.2,1.9-4.2,4.2v3.7c0,2.3,1.9,4.2,4.2,4.2h3.7
			c2.3,0,4.2-1.9,4.2-4.2V366.2z"/>
		<path class="st4" d="M684,380.2c0-2.3-1.9-4.2-4.2-4.2h-3.7c-2.3,0-4.2,1.9-4.2,4.2v3.7c0,2.3,1.9,4.2,4.2,4.2h3.7
			c2.3,0,4.2-1.9,4.2-4.2V380.2z"/>
		<path class="st4" d="M684,394.2c0-2.3-1.9-4.2-4.2-4.2h-3.7c-2.3,0-4.2,1.9-4.2,4.2v3.7c0,2.3,1.9,4.2,4.2,4.2h3.7
			c2.3,0,4.2-1.9,4.2-4.2V394.2z"/>
		<path class="st4" d="M684,408.2c0-2.3-1.9-4.2-4.2-4.2h-3.7c-2.3,0-4.2,1.9-4.2,4.2v3.7c0,2.3,1.9,4.2,4.2,4.2h3.7
			c2.3,0,4.2-1.9,4.2-4.2V408.2z"/>
		<path class="st4" d="M684,422.2c0-2.3-1.9-4.2-4.2-4.2h-3.7c-2.3,0-4.2,1.9-4.2,4.2v3.7c0,2.3,1.9,4.2,4.2,4.2h3.7
			c2.3,0,4.2-1.9,4.2-4.2V422.2z"/>
		<g>
			<path class="st4" d="M698,366.2c0-2.3-1.9-4.2-4.2-4.2h-3.7c-2.3,0-4.2,1.9-4.2,4.2v3.7c0,2.3,1.9,4.2,4.2,4.2h3.7
				c2.3,0,4.2-1.9,4.2-4.2V366.2z"/>
			<path class="st4" d="M698,422.2c0-2.3-1.9-4.2-4.2-4.2h-3.7c-2.3,0-4.2,1.9-4.2,4.2v3.7c0,2.3,1.9,4.2,4.2,4.2h3.7
				c2.3,0,4.2-1.9,4.2-4.2V422.2z"/>
		</g>
	</g>
	<g>
		<path class="st4" d="M712,366.2c0-2.3-1.9-4.2-4.2-4.2h-3.7c-2.3,0-4.2,1.9-4.2,4.2v3.7c0,2.3,1.9,4.2,4.2,4.2h3.7
			c2.3,0,4.2-1.9,4.2-4.2V366.2z"/>
		<path class="st4" d="M712,380.2c0-2.3-1.9-4.2-4.2-4.2h-3.7c-2.3,0-4.2,1.9-4.2,4.2v3.7c0,2.3,1.9,4.2,4.2,4.2h3.7
			c2.3,0,4.2-1.9,4.2-4.2V380.2z"/>
		<path class="st4" d="M712,394.2c0-2.3-1.9-4.2-4.2-4.2h-3.7c-2.3,0-4.2,1.9-4.2,4.2v3.7c0,2.3,1.9,4.2,4.2,4.2h3.7
			c2.3,0,4.2-1.9,4.2-4.2V394.2z"/>
		<path class="st4" d="M712,408.2c0-2.3-1.9-4.2-4.2-4.2h-3.7c-2.3,0-4.2,1.9-4.2,4.2v3.7c0,2.3,1.9,4.2,4.2,4.2h3.7
			c2.3,0,4.2-1.9,4.2-4.2V408.2z"/>
		<path class="st4" d="M712,422.2c0-2.3-1.9-4.2-4.2-4.2h-3.7c-2.3,0-4.2,1.9-4.2,4.2v3.7c0,2.3,1.9,4.2,4.2,4.2h3.7
			c2.3,0,4.2-1.9,4.2-4.2V422.2z"/>
	</g>
</g>
<circle class="st5" cx="598.8" cy="634.9" r="93.7"/>
<circle class="st6" cx="598.8" cy="634.9" r="82.6"/>
<circle class="st7" cx="598.8" cy="634.9" r="74.3"/>
<circle class="st8" cx="598.8" cy="634.9" r="63"/>
<circle class="st8" cx="598.8" cy="634.9" r="51.3"/>
</svg>
