<?xml version="1.0" encoding="UTF-8"?>
<svg width="140px" height="140px" viewBox="0 0 140 140" version="1.1" xmlns="http://www.w3.org/2000/svg" xmlns:xlink="http://www.w3.org/1999/xlink">
    <!-- Generator: Sketch 50 (54983) - http://www.bohemiancoding.com/sketch -->
    <title>1500-TS-ClearCoinLogo-C3</title>
    <desc>Created with Sketch.</desc>
    <defs></defs>
    <g id="Page-1" stroke="none" stroke-width="1" fill="none" fill-rule="evenodd">
        <g id="1500-TS-ClearCoinLogo-C3" fill-rule="nonzero">
            <g id="Group">
                <g opacity="0.66" fill="#1536FF" id="Shape">
                    <g>
                        <path d="M69.78,0 C108.312906,0.0055232432 139.545522,31.2470931 139.539999,69.7799995 C139.534476,108.312906 108.292906,139.545521 69.7599995,139.539999 C31.2270931,139.534476 -0.00552245163,108.292906 -5.32907052e-15,69.76 C-7.60510824e-07,51.2550319 7.35243778,33.5082714 20.4393015,20.4251585 C33.5261652,7.3420457 51.2750327,-0.00530532342 69.78,-3.55271368e-15"></path>
                    </g>
                </g>
                <g opacity="0.33" transform="translate(8.000000, 8.000000)" fill="#1FE2FF" id="Shape">
                    <g>
                        <path d="M61.78,0.28 C95.7318607,0.291044848 123.247361,27.8214673 123.239999,61.773329 C123.232636,95.7251907 95.7051978,123.243677 61.7533355,123.239996 C27.8014732,123.236316 0.280001796,95.7118625 0.28,61.76 C0.282651949,45.451838 6.76358753,29.8126693 18.2970749,18.2829327 C29.8305622,6.75319613 45.471838,0.277347619 61.78,0.28"></path>
                    </g>
                </g>
                <g opacity="0.33" transform="translate(14.000000, 14.000000)" fill="#E9F0FF" id="Shape">
                    <g>
                        <path d="M55.78,0.46 C78.1517167,0.460000366 98.3203821,13.9369315 106.880733,34.6060897 C115.441084,55.2752479 110.707162,79.0658494 94.8865392,94.8836118 C79.0659165,110.701374 55.2744594,115.430994 34.6068493,106.866906 C13.9392393,98.3028182 0.465955213,78.1317163 0.47,55.76 C0.46999976,41.0917953 6.29760572,27.0245083 16.6705304,16.653459 C27.043455,6.28240981 41.1117956,0.457347522 55.78,0.46"></path>
                    </g>
                </g>
                <path d="M69.78,22.87 C95.6753295,22.8755226 116.663681,43.8713355 116.66,69.7666652 C116.656318,95.661995 95.6619974,116.651839 69.7666674,116.649999 C43.8713374,116.648158 22.8800006,95.65533 22.88,69.76 C22.8799997,57.322266 27.8215546,45.3940953 36.6172984,36.600227 C45.4130421,27.8063587 57.3422663,22.8673475 69.78,22.87" id="Shape" fill="#FFFFFF"></path>
                <path d="M69.78,31.58 C90.8649291,31.5855225 107.953681,48.6817354 107.949999,69.7666649 C107.946318,90.8515944 90.8515973,107.941839 69.7666675,107.939999 C48.6817378,107.938158 31.5900007,90.8449298 31.59,69.76 C31.5955218,48.6721508 48.69215,31.5799993 69.78,31.58" id="Shape" fill="#FFFFFF"></path>
            </g>
        </g>
    </g>
</svg>